<?xml version="1.0" encoding="utf-8"?>
<!-- Generator: Adobe Illustrator 20.1.0, SVG Export Plug-In . SVG Version: 6.00 Build 0)  -->
<svg version="1.1" id="Layer_1" xmlns="http://www.w3.org/2000/svg" xmlns:xlink="http://www.w3.org/1999/xlink" x="0px" y="0px"
	 viewBox="0 0 341 410" style="enable-background:new 0 0 341 410;" xml:space="preserve">
<style type="text/css">
	.st0{opacity:0.7;}
	.st1{fill:url(#SVGID_1_);}
	.st2{fill:#FFFFFF;}
	.st3{fill:url(#SVGID_2_);}
	.st4{fill:url(#SVGID_3_);}
	.st5{fill:url(#SVGID_4_);}
	.st6{fill:url(#SVGID_5_);}
	.st7{fill:url(#SVGID_6_);}
	.st8{fill:#3C2826;}
	.st9{font-family:'Optima-Bold';}
	.st10{font-size:45.9738px;}
	.st11{letter-spacing:1;}
	.st12{opacity:0.7;fill:#7B6C66;enable-background:new    ;}
	.st13{font-size:37.1774px;}
	.st14{letter-spacing:2;}
</style>
<g id="Layer_1_1_">
</g>
<g id="Isolation_Mode">
</g>
<g id="_x3C_Layer_x3E_">
	<g>
		<g class="st0">
			
				<linearGradient id="SVGID_1_" gradientUnits="userSpaceOnUse" x1="171.4" y1="193.3" x2="171.4" y2="350.1999" gradientTransform="matrix(1 0 0 -1 0 390)">
				<stop  offset="0" style="stop-color:#91BB90"/>
				<stop  offset="0.4391" style="stop-color:#BAD86A"/>
				<stop  offset="0.4861" style="stop-color:#C3DC80"/>
				<stop  offset="0.5794" style="stop-color:#D4E6A4"/>
				<stop  offset="0.6719" style="stop-color:#E2EEC4"/>
				<stop  offset="0.7616" style="stop-color:#EDF4DC"/>
				<stop  offset="0.8478" style="stop-color:#F6F9ED"/>
				<stop  offset="0.929" style="stop-color:#FCFDF9"/>
				<stop  offset="1" style="stop-color:#FFFFFF"/>
			</linearGradient>
			<path class="st1" d="M95.1,151.1c0,0,4.3,12.1,5.8,16.1c1.3,3.4,4,10.3,5.5,13.7c0,0.1,0.1,0.2,0.1,0.2
				c4.1-3.7,7.8-7.7,11.7-11.8c28.2-29.7,43.6-76.3,48.2-95.8c2.3-9.6,4.4-18.6,4.4-18.6s21.7,79,45.9,123.4
				c0.7,1.3,1.4,2.6,2.2,3.8c4.4-4.2,10.6-10.3,16-16.9c10.5-12.9,16.4-23.1,16.4-23.1s5.6,17.1,14.5,34.9c2.4,4.8,8,13.9,11.2,18.1
				c0.3,0.4,0.7,1,1.2,1.6c0.5-1.3,1-2.6,1.5-3.9c-0.2-0.2-0.3-0.4-0.5-0.6c4.5-12.3,6.9-25.5,6.9-39.3c0-9.4-1.1-18.5-3.3-27.3
				C269.9,76.2,225,39.8,171.6,39.8c-63.5,0-114.9,51.4-114.9,114.9c0,9.3,1.1,18.4,3.2,27c0,0.1,0.1,0.2,0.1,0.3l0,0
				c0.2,0.6,0.3,1.2,0.5,1.9c-0.3,0.3-0.7,0.6-1,0.9c0.2,0.6,0.4,1.3,0.6,1.9c5.3-4.5,11.4-9.8,14.9-13.2
				C89.6,159,95.1,151.1,95.1,151.1z"/>
		</g>
		<g>
			<path class="st2" d="M60.6,183.9c-2.5-9.3-3.8-19.1-3.8-29.2c0-63.5,51.4-114.9,114.9-114.9s114.9,51.4,114.9,114.9
				c0,13.8-2.4,27-6.9,39.3c0.3,0.4,0.5,0.8,0.8,1.1c0.8,1.1,2.3,3.1,3.9,5.1c5.7-14,8.8-29.4,8.8-45.4
				c0-67.1-54.4-121.5-121.5-121.5S50.2,87.7,50.2,154.8c0,11.8,1.7,23.2,4.8,33.9C56.9,187.1,58.8,185.5,60.6,183.9z"/>
		</g>
		<g>
			
				<linearGradient id="SVGID_2_" gradientUnits="userSpaceOnUse" x1="49.8" y1="275.15" x2="292.8" y2="275.15" gradientTransform="matrix(1 0 0 -1 0 390)">
				<stop  offset="0" style="stop-color:#FFF45F"/>
				<stop  offset="0.5" style="stop-color:#FFF45F;stop-opacity:0"/>
				<stop  offset="1" style="stop-color:#FFF45F"/>
			</linearGradient>
			<path class="st3" d="M60.2,182c-2.5-9.3-3.8-19.1-3.8-29.2c0-63.5,51.4-114.9,114.9-114.9s114.9,51.4,114.9,114.9
				c0,13.8-2.4,27-6.9,39.3c0.3,0.4,0.5,0.8,0.8,1.1c0.8,1.1,2.3,3.1,3.9,5.1c5.7-14,8.8-29.4,8.8-45.4
				c0-67.1-54.4-121.5-121.5-121.5S49.8,85.8,49.8,152.9c0,11.8,1.7,23.2,4.8,33.9C56.4,185.2,58.3,183.6,60.2,182z"/>
		</g>
		<g class="st0">
			<g>
				
					<linearGradient id="SVGID_3_" gradientUnits="userSpaceOnUse" x1="39.6" y1="236.7" x2="302.4" y2="236.7" gradientTransform="matrix(1 0 0 -1 0 390)">
					<stop  offset="0" style="stop-color:#20773C"/>
					<stop  offset="1.674679e-02" style="stop-color:#2A8A48"/>
					<stop  offset="0.1484" style="stop-color:#2C8144"/>
					<stop  offset="0.402" style="stop-color:#2B6C3B"/>
					<stop  offset="0.7487" style="stop-color:#214B2C"/>
					<stop  offset="1" style="stop-color:#14331C"/>
				</linearGradient>
				<path class="st4" d="M171,21.9c-72.6,0-131.4,58.8-131.4,131.4S98.4,284.7,171,284.7s131.4-58.8,131.4-131.4
					S243.6,21.9,171,21.9z M171,280.7c-20.9,0-40.7-5.1-58.1-14c3.4-1.6,12.9-6,22.2-9.1c9.4-3.1,23-6.7,40-8.9
					c12.2-1.6,35-3.8,47.2-5.3c7.4-0.9,22.2-3.1,29.6-4.5c5.3-1,13.2-2.9,16.8-3.9C245.3,263,210.2,280.7,171,280.7z M273.5,229
					c-4.1,0.8-12.5,2.5-17.7,3.3c-12.7,1.8-21.6,3.1-49.4,4.8c-15.5,0.9-46.7,1.4-62.2,2.4c-9,0.6-27.1,2-35.9,3.7
					c-9.9,1.9-18.5,4.4-21.9,5.4c-15.5-13.8-27.6-31.3-35-51.1c3-2.3,11.6-8.9,14-10.8c4.5-3.7,11.9-10.2,16.1-14.2
					c3-2.9,10.7-11.2,10.7-11.2s3.3,9.1,4.3,11.6c1.1,2.6,3.3,7.5,5.5,12.3c-11,9.3-20.9,15.7-29.6,20.6c-1.1,0.6-2.6,1.5-3.7,2
					c-0.7,0.4-4.8,2.7-5.4,3.2c-0.5,0.5-1.5,1.8-1.2,2.4c0.5,0.8,4.4-0.4,5.3-0.6c3.2-1,6.1-2.8,7.9-3.9
					c9.8-6.1,19.4-12.2,28.5-19.5c1.8,3.9,3.5,7.3,4.1,8.4c3.5,6,7.1,11.2,10.2,14.5c2,2.1,5.6,5.6,8.7,7.4c1.6,0.9,6,3.8,7,2.5
					c0.7-1-4-6.8-5.9-8.6c-2.5-2.4-8.5-8.2-12.1-14.1c-2.5-4.1-5.1-9.2-7.4-14c5.1-4.4,9.9-9.3,14.9-14.5
					c33.3-34.9,46.9-89.2,46.9-89.2s16.8,55.8,31.9,85.5c4.5,8.8,7.5,14.6,11.1,19.9c-7.8,6.7-20.5,15.7-27.9,20.6
					c-4,2.6-9.1,5.4-12.1,6.8c-1.2,0.6-3.5,1.7-4.7,2.4c-0.5,0.3-1.6,1.3-1.3,1.8c0.5,0.9,3,0.8,4,0.5c1.5-0.4,5.6-2.2,6.9-3
					c2.8-1.5,8-4.7,10.7-6.5c6.8-4.7,18.1-12.6,26.6-19.6c3.5,4.8,7.8,9.6,14.3,16.2c3.3,3.3,8.5,8.5,14.6,11.6
					c3.1,1.6,12.1,5.4,13.2,3.5c0.6-1.1-2.9-4.4-4-5.3c-4.7-3.9-13.8-10.3-18.5-14.8c-4-3.9-9.2-9.4-13.9-16.2
					c18.3-16.5,29.2-32.9,29.2-32.9s6.6,17.3,12.2,27.8c2.3,4.3,7.4,12.5,10.3,16.3c1.4,1.7,4.3,5.5,6.9,8.4
					c2.2,2.4,4.2,4.3,5.2,5.2C281.7,216.8,277.9,223.1,273.5,229z M282.9,202.2c-2.3-2.5-4.6-5.7-5.8-7.2
					c-3.2-4.2-8.8-13.3-11.2-18.1c-8.9-17.8-14.5-34.9-14.5-34.9s-5.9,10.2-16.4,23.1c-5.3,6.6-11.6,12.7-16,16.9
					c-0.8-1.2-1.5-2.5-2.2-3.8c-24.2-44.4-45.9-123.4-45.9-123.4s-2.1,9-4.4,18.6c-4.6,19.6-20,66.1-48.2,95.8
					c-3.9,4.1-7.7,8.1-11.7,11.8c0-0.1-0.1-0.2-0.1-0.2c-1.5-3.4-4.2-10.2-5.5-13.7c-1.5-4-5.8-16.1-5.8-16.1s-5.5,7.9-20,22.4
					c-6.4,6.3-21.4,18.7-24.6,21.3c-4.5-13-6.9-26.9-6.9-41.4c0-70.4,57-127.4,127.4-127.4s127.4,57,127.4,127.4
					c0,18.9-4.1,36.8-11.5,52.9C285.9,205.3,284.4,203.8,282.9,202.2z"/>
			</g>
		</g>
		<g>
			
				<linearGradient id="SVGID_4_" gradientUnits="userSpaceOnUse" x1="51.6" y1="224.7" x2="285.3" y2="224.7" gradientTransform="matrix(1 0 0 -1 0 390)">
				<stop  offset="0" style="stop-color:#C7DB9B"/>
				<stop  offset="7.171707e-02" style="stop-color:#CADDA1"/>
				<stop  offset="0.1887" style="stop-color:#D4E3B4"/>
				<stop  offset="0.3363" style="stop-color:#E5EED2"/>
				<stop  offset="0.5" style="stop-color:#FFFFFF"/>
				<stop  offset="0.5717" style="stop-color:#F9FBF5"/>
				<stop  offset="0.6887" style="stop-color:#EDF3E1"/>
				<stop  offset="0.8363" style="stop-color:#DCE8C2"/>
				<stop  offset="1" style="stop-color:#C7DB9B"/>
			</linearGradient>
			<path class="st5" d="M279.9,204.9c-2.7-2.9-5.6-6.7-6.9-8.4c-3-3.8-8-12-10.3-16.3c-5.6-10.4-12.2-27.8-12.2-27.8
				s-10.9,16.5-29.2,32.9c4.7,6.8,9.9,12.2,13.9,16.2c4.6,4.5,13.7,10.9,18.5,14.8c1.1,0.9,4.7,4.2,4,5.3c-1.1,1.9-10.2-2-13.2-3.5
				c-6.2-3.1-11.4-8.3-14.6-11.6c-6.5-6.7-10.7-11.4-14.3-16.2c-8.6,7-19.8,15-26.6,19.6c-2.6,1.8-7.9,5-10.7,6.5
				c-1.4,0.7-5.4,2.6-6.9,3c-1,0.3-3.5,0.4-4-0.5c-0.3-0.5,0.8-1.5,1.3-1.8c1.2-0.7,3.5-1.8,4.7-2.4c3-1.4,8.1-4.2,12.1-6.8
				c7.4-4.9,20.1-13.9,27.9-20.6c-3.5-5.3-6.6-11.1-11.1-19.9c-15.1-29.7-31.9-85.5-31.9-85.5s-13.5,54.3-46.9,89.2
				c-4.9,5.2-9.8,10-14.9,14.5c2.3,4.8,4.9,9.9,7.4,14c3.6,5.9,9.7,11.7,12.1,14.1c1.9,1.8,6.6,7.6,5.9,8.6c-1,1.3-5.4-1.6-7-2.5
				c-3.2-1.9-6.8-5.3-8.7-7.4c-3.1-3.3-6.7-8.5-10.2-14.5c-0.7-1.1-2.3-4.5-4.1-8.4c-9.1,7.3-18.7,13.4-28.5,19.5
				c-1.8,1.1-4.8,2.9-7.9,3.9c-0.9,0.3-4.8,1.4-5.3,0.6c-0.4-0.6,0.7-1.9,1.2-2.4c0.5-0.6,4.7-2.8,5.4-3.2c1.1-0.6,2.6-1.4,3.7-2
				c8.6-4.8,18.5-11.2,29.6-20.6c-2.2-4.8-4.4-9.7-5.5-12.3c-1.1-2.5-4.3-11.6-4.3-11.6s-7.6,8.3-10.7,11.2
				c-4.2,4-11.6,10.6-16.1,14.2c-2.4,1.9-11,8.6-14,10.8c7.3,19.8,19.4,37.3,35,51.1c3.4-1,12-3.5,21.9-5.4
				c8.9-1.7,26.9-3.1,35.9-3.7c15.5-1,46.7-1.5,62.2-2.4c27.7-1.7,36.7-3,49.4-4.8c5.2-0.7,13.6-2.4,17.7-3.3
				c4.4-5.9,8.3-12.2,11.6-18.9C284.1,209.3,282.1,207.3,279.9,204.9z"/>
		</g>
		<g>
			
				<linearGradient id="SVGID_5_" gradientUnits="userSpaceOnUse" x1="112.9" y1="132" x2="268.7" y2="132" gradientTransform="matrix(1 0 0 -1 0 390)">
				<stop  offset="0" style="stop-color:#C7DB9B"/>
				<stop  offset="0.5" style="stop-color:#FFFFFF"/>
				<stop  offset="1" style="stop-color:#C7DB9B"/>
			</linearGradient>
			<path class="st6" d="M222.3,243.5c-12.2,1.5-35,3.7-47.2,5.3c-17,2.2-30.6,5.8-40,8.9c-9.3,3.1-18.8,7.4-22.2,9.1
				c17.4,8.9,37.2,14,58.1,14c39.2,0,74.3-17.7,97.7-45.6c-3.6,0.9-11.5,2.9-16.8,3.9C244.5,240.3,229.7,242.6,222.3,243.5z"/>
		</g>
		<g>
			
				<linearGradient id="SVGID_6_" gradientUnits="userSpaceOnUse" x1="38.5" y1="236.65" x2="303.5" y2="236.65" gradientTransform="matrix(1 0 0 -1 0 390)">
				<stop  offset="0" style="stop-color:#7DCDCA"/>
				<stop  offset="1" style="stop-color:#262268"/>
			</linearGradient>
			<path class="st7" d="M171,23.2c34.8,0,67.4,13.5,92,38.1s38.1,57.3,38.1,92s-13.5,67.4-38.1,92s-57.3,38.1-92,38.1
				s-67.4-13.5-92-38.1s-38.1-57.2-38.1-92s13.5-67.4,38.1-92S136.2,23.2,171,23.2 M171,20.9c-73.2,0-132.5,59.3-132.5,132.5
				S97.8,285.8,171,285.8s132.5-59.3,132.5-132.5S244.2,20.9,171,20.9L171,20.9z"/>
		</g>
		<g>
			<text transform="matrix(1 0 0 1 2.4229 348.537)" class="st8 st9 st10 st11">Peaks Recovery</text>
		</g>
		<text transform="matrix(1 0 0 1 95.1893 397.4999)" class="st12 st9 st13 st14">Services</text>
	</g>
</g>
<g id="Colour_themes">
</g>
</svg>
