<?xml version="1.0" encoding="utf-8"?>
<?xml-stylesheet href="index.css" type="text/css"?>
<svg viewBox="0 0 100 100" xmlns="http://www.w3.org/2000/svg">
    <path class="icon google" d="M 61.815 50.706 C 61.815 56.456 60.614 61.575 58.21 66.065 C 55.806 70.558 52.377 74.068 47.928 76.597 C 43.478 79.124 38.379 80.389 32.63 80.389 C 28.512 80.389 24.573 79.59 20.813 77.985 C 17.055 76.381 13.821 74.226 11.112 71.517 C 8.404 68.809 6.248 65.575 4.645 61.817 C 3.043 58.057 2.24 54.117 2.24 50.001 C 2.24 45.883 3.043 41.943 4.645 38.184 C 6.248 34.427 8.404 31.191 11.112 28.483 C 13.821 25.774 17.055 23.619 20.813 22.016 C 24.573 20.414 28.512 19.611 32.63 19.611 C 40.534 19.611 47.319 22.265 52.986 27.572 L 44.735 35.491 C 41.501 32.365 37.466 30.805 32.63 30.805 C 29.23 30.805 26.087 31.662 23.198 33.375 C 20.309 35.089 18.023 37.42 16.337 40.362 C 14.652 43.305 13.807 46.519 13.807 50.001 C 13.807 53.484 14.652 56.696 16.337 59.639 C 18.023 62.584 20.309 64.911 23.198 66.624 C 26.087 68.338 29.23 69.195 32.63 69.195 C 34.924 69.195 37.03 68.878 38.953 68.243 C 40.873 67.606 42.456 66.812 43.699 65.858 C 44.942 64.904 46.028 63.82 46.954 62.605 C 47.879 61.388 48.557 60.242 48.985 59.164 C 49.412 58.086 49.711 57.062 49.877 56.095 L 32.63 56.095 L 32.63 45.648 L 61.319 45.648 C 61.65 47.389 61.815 49.076 61.815 50.706 Z M 97.761 45.648 L 97.761 54.354 L 89.095 54.354 L 89.095 63.018 L 80.389 63.018 L 80.389 54.354 L 71.725 54.354 L 71.725 45.648 L 80.389 45.648 L 80.389 36.983 L 89.095 36.983 L 89.095 45.648 L 97.761 45.648 Z"/>
</svg>
