<?xml version="1.0" encoding="utf-8"?>
<?xml-stylesheet href="index.css" type="text/css"?>
<svg viewBox="0 0 100 100" xmlns="http://www.w3.org/2000/svg">
  <path class="icon twitter" d="M98.373 20.043c-2.743 4.01-6.058 7.428-9.945 10.25.04.574.06 1.433.06 2.58 0 5.32-.777 10.63-2.33 15.93-1.557 5.3-3.92 10.383-7.093 15.254-3.17 4.87-6.946 9.176-11.324 12.92-4.38 3.746-9.65 6.733-15.83 8.962-6.18 2.23-12.78 3.34-19.82 3.34-11.09 0-21.24-2.97-30.45-8.9 1.44.16 3.03.24 4.79.24 9.21 0 17.41-2.83 24.62-8.47-4.294-.08-8.14-1.41-11.54-3.96-3.393-2.56-5.73-5.82-6.994-9.79 1.35.2 2.598.3 3.746.3 1.76 0 3.498-.23 5.217-.68-4.586-.94-8.38-3.22-11.39-6.84-3.016-3.62-4.52-7.82-4.52-12.61v-.248c2.786 1.556 5.775 2.394 8.967 2.516-2.7-1.8-4.85-4.15-6.445-7.05-1.6-2.908-2.4-6.06-2.4-9.457 0-3.6.9-6.936 2.7-10.006 4.95 6.097 10.98 10.977 18.08 14.64 7.1 3.66 14.702 5.696 22.803 6.106-.328-1.552-.49-3.07-.49-4.54 0-5.484 1.93-10.16 5.8-14.026 3.865-3.865 8.542-5.8 14.026-5.8 5.73 0 10.556 2.09 14.483 6.264 4.46-.86 8.658-2.45 12.587-4.79-1.513 4.71-4.42 8.35-8.717 10.93 3.803-.41 7.61-1.43 11.42-3.07z"/>
</svg>
